<svg width="35" height="27" viewBox="0 0 37 29" fill="none" xmlns="http://www.w3.org/2000/svg">
<path d="M30.6723 3.26798C28.3907 2.20601 25.9675 1.432 23.4383 1C23.1197 1.55801 22.766 2.31399 22.5185 2.90801C19.8282 2.51198 17.1574 2.51198 14.5043 2.90801C14.2566 2.31399 13.8852 1.55801 13.5845 1C11.0375 1.432 8.61434 2.20601 6.3486 3.26798C1.76757 10.144 0.529435 16.8579 1.14849 23.4819C4.19072 25.7318 7.12686 27.0999 10.0117 28C10.7192 27.028 11.3559 25.9839 11.9043 24.8859C10.8607 24.49 9.8702 24.004 8.91507 23.4279C9.16269 23.248 9.41033 23.0501 9.64027 22.8519C15.4064 25.5341 21.6517 25.5341 27.3471 22.8519C27.5947 23.0501 27.8247 23.248 28.0723 23.4279C27.1172 24.004 26.1267 24.49 25.083 24.8859C25.6314 25.9839 26.2682 27.028 26.9757 28C29.8587 27.0999 32.8126 25.7318 35.8388 23.4819C36.5994 15.8141 34.6343 9.15403 30.6723 3.26798ZM12.7002 19.3959C10.9668 19.3959 9.55179 17.794 9.55179 15.8319C9.55179 13.8701 10.9314 12.268 12.7002 12.268C14.4512 12.268 15.8838 13.8701 15.8484 15.8319C15.8484 17.794 14.4512 19.3959 12.7002 19.3959ZM24.3226 19.3959C22.5891 19.3959 21.1724 17.794 21.1724 15.8319C21.1724 13.8701 22.5538 12.268 24.3226 12.268C26.0737 12.268 27.5063 13.8701 27.4708 15.8319C27.4708 17.794 26.0914 19.3959 24.3226 19.3959Z" stroke="white" stroke-width="2" stroke-linejoin="round"/>
</svg>
